<svg width="32" height="32" viewBox="0 0 32 32" fill="none" xmlns="http://www.w3.org/2000/svg">
<path fill-rule="evenodd" clip-rule="evenodd" d="M7.8335 11.5001H4.66683C3.93083 11.5001 3.3335 12.0975 3.3335 12.8335V19.1668C3.3335 19.9028 3.93083 20.5001 4.66683 20.5001H7.8335L13.1388 24.9948C14.0055 25.7295 15.3335 25.1135 15.3335 23.9775V8.02281C15.3335 6.88681 14.0042 6.27081 13.1388 7.00547L7.8335 11.5001Z" stroke="white" stroke-width="1.5" stroke-linecap="round" stroke-linejoin="round"/>
<path d="M20.7158 21.3038C22.2652 20.3411 23.3332 18.3385 23.3332 16.0065C23.3332 13.6745 22.2652 11.6705 20.7158 10.6958" stroke="white" stroke-width="1.5" stroke-linecap="round" stroke-linejoin="round"/>
<path d="M24.6732 25.4202C27.0838 23.3469 28.6665 19.9069 28.6665 16.0042C28.6665 12.0962 27.0812 8.65354 24.6665 6.58154" stroke="white" stroke-width="1.5" stroke-linecap="round" stroke-linejoin="round"/>
</svg>
