<svg width="27" height="24" viewBox="0 0 27 24" fill="none" xmlns="http://www.w3.org/2000/svg">
<path d="M13.5 12C12.2625 12 11.2031 11.6083 10.3219 10.825C9.44063 10.0417 9 9.1 9 8C9 6.9 9.44063 5.95833 10.3219 5.175C11.2031 4.39167 12.2625 4 13.5 4C14.7375 4 15.7969 4.39167 16.6781 5.175C17.5594 5.95833 18 6.9 18 8C18 9.1 17.5594 10.0417 16.6781 10.825C15.7969 11.6083 14.7375 12 13.5 12ZM4.5 20V17.2C4.5 16.6333 4.66406 16.1125 4.99219 15.6375C5.32031 15.1625 5.75625 14.8 6.3 14.55C7.4625 14.0333 8.64375 13.6458 9.84375 13.3875C11.0438 13.1292 12.2625 13 13.5 13C14.7375 13 15.9563 13.1292 17.1562 13.3875C18.3562 13.6458 19.5375 14.0333 20.7 14.55C21.2438 14.8 21.6797 15.1625 22.0078 15.6375C22.3359 16.1125 22.5 16.6333 22.5 17.2V20H4.5ZM6.75 18H20.25V17.2C20.25 17.0167 20.1984 16.85 20.0953 16.7C19.9922 16.55 19.8562 16.4333 19.6875 16.35C18.675 15.9 17.6531 15.5625 16.6219 15.3375C15.5906 15.1125 14.55 15 13.5 15C12.45 15 11.4094 15.1125 10.3781 15.3375C9.34687 15.5625 8.325 15.9 7.3125 16.35C7.14375 16.4333 7.00781 16.55 6.90469 16.7C6.80156 16.85 6.75 17.0167 6.75 17.2V18ZM13.5 10C14.1187 10 14.6484 9.80417 15.0891 9.4125C15.5297 9.02083 15.75 8.55 15.75 8C15.75 7.45 15.5297 6.97917 15.0891 6.5875C14.6484 6.19583 14.1187 6 13.5 6C12.8813 6 12.3516 6.19583 11.9109 6.5875C11.4703 6.97917 11.25 7.45 11.25 8C11.25 8.55 11.4703 9.02083 11.9109 9.4125C12.3516 9.80417 12.8813 10 13.5 10Z" fill="#E5E0E0"/>
</svg>
