<svg width="24" height="24" viewBox="0 0 24 24" fill="none" xmlns="http://www.w3.org/2000/svg">
<path fill-rule="evenodd" clip-rule="evenodd" d="M19.1189 6V18C19.1189 19.105 18.2239 20 17.1189 20H6.88086C5.77586 20 4.88086 19.105 4.88086 18V6C4.88086 4.895 5.77586 4 6.88086 4H17.1199C18.2239 4 19.1189 4.895 19.1189 6Z" stroke="#E5E0E0" stroke-width="1.5" stroke-linecap="round" stroke-linejoin="round"/>
<path d="M19.1191 6H20.2211C21.3261 6 22.2211 6.895 22.2211 8V16C22.2211 17.105 21.3261 18 20.2211 18H19.1191" stroke="#E5E0E0" stroke-width="1.5" stroke-linecap="round" stroke-linejoin="round"/>
<path d="M4.88083 18H3.77783C2.67283 18 1.77783 17.105 1.77783 16V8C1.77783 6.895 2.67283 6 3.77783 6H4.87983" stroke="#E5E0E0" stroke-width="1.5" stroke-linecap="round" stroke-linejoin="round"/>
<path d="M11.9142 13.0858C12.6953 13.8668 12.6953 15.1332 11.9142 15.9142C11.1332 16.6953 9.86684 16.6953 9.08579 15.9142C8.30474 15.1332 8.30474 13.8668 9.08579 13.0858C9.86684 12.3047 11.1332 12.3047 11.9142 13.0858" stroke="#E5E0E0" stroke-width="1.5" stroke-linecap="round" stroke-linejoin="round"/>
<path d="M15.5 8.5L12.5 7.5V14.5" stroke="#E5E0E0" stroke-width="1.5" stroke-linecap="round" stroke-linejoin="round"/>
</svg>
